<svg width="34" height="35" viewBox="0 0 34 35" fill="none" xmlns="http://www.w3.org/2000/svg">
<path d="M25 1H9C4.58172 1 1 4.64476 1 9.14081V25.4224C1 29.9185 4.58172 33.5632 9 33.5632H25C29.4183 33.5632 33 29.9185 33 25.4224V9.14081C33 4.64476 29.4183 1 25 1Z" stroke="#A5B096" stroke-width="2" stroke-linecap="round" stroke-linejoin="round"/>
<path d="M23.4027 16.2566C23.6001 17.6116 23.3727 18.9955 22.7527 20.2115C22.1327 21.4274 21.1517 22.4134 19.9493 23.0293C18.7468 23.6451 17.3842 23.8595 16.0551 23.6419C14.7261 23.4243 13.4983 22.7857 12.5464 21.8171C11.5945 20.8484 10.967 19.599 10.7532 18.2466C10.5393 16.8941 10.75 15.5075 11.3552 14.2839C11.9604 13.0603 12.9294 12.062 14.1242 11.4311C15.3191 10.8002 16.6791 10.5687 18.0107 10.7697C19.3689 10.9746 20.6264 11.6187 21.5974 12.6067C22.5683 13.5948 23.2012 14.8744 23.4027 16.2566Z" stroke="#A5B096" stroke-width="2" stroke-linecap="round" stroke-linejoin="round"/>
<path d="M25.8008 8.32617H25.8168" stroke="#A5B096" stroke-width="2" stroke-linecap="round" stroke-linejoin="round"/>
</svg>
