<svg width="152" height="51" viewBox="0 0 152 51" fill="none" xmlns="http://www.w3.org/2000/svg">
<path d="M8.44455 12.774C9.21416 11.799 10.0995 11.0745 11.1006 10.6006C12.1065 10.1206 13.1235 9.948 14.1518 10.0828C15.1848 10.2115 16.1552 10.634 17.0628 11.3503C18.4058 12.4104 19.153 13.7019 19.3046 15.2248C19.4622 16.7526 19.0109 18.2575 17.9505 19.7396L17.5459 20.2712C16.7714 21.2524 15.8892 21.9793 14.8991 22.4519C13.9151 22.9293 12.9035 23.1013 11.8643 22.9678C10.8313 22.8391 9.85479 22.4118 8.93493 21.6857C7.53061 20.5773 6.77317 19.223 6.66262 17.6229C6.56305 16.0215 7.12798 14.442 8.35742 12.8844L8.44455 12.774ZM10.5273 14.7315C9.71901 15.7556 9.2965 16.7259 9.25981 17.6425C9.22796 18.5529 9.58917 19.3058 10.3435 19.9012C11.0977 20.4965 11.9157 20.6644 12.7974 20.4049C13.6852 20.1501 14.5768 19.4555 15.4723 18.321C16.2661 17.3153 16.6776 16.3463 16.7069 15.4139C16.7423 14.4863 16.389 13.7297 15.647 13.1441C14.9172 12.5681 14.1078 12.4019 13.2187 12.6457C12.3344 12.8833 11.4373 13.5786 10.5273 14.7315Z" fill="#FFF4C7"/>
<path d="M26.132 30.2427C26.7588 30.5783 27.3765 30.6742 27.9852 30.5305C28.5939 30.3867 29.0558 30.0536 29.371 29.5311L31.7368 30.7979C31.3368 31.4787 30.7714 32.0134 30.0405 32.4019C29.3133 32.7836 28.5079 32.9638 27.6242 32.9426C26.7405 32.9214 25.8957 32.695 25.0899 32.2636C23.5264 31.4265 22.5578 30.2564 22.1838 28.7535C21.8099 27.2506 22.1005 25.6072 23.0556 23.8234L23.1939 23.5651C24.1048 21.864 25.2877 20.7471 26.7426 20.2145C28.2012 19.6751 29.7157 19.8258 31.286 20.6666C32.6152 21.3783 33.4882 22.3464 33.9049 23.5709C34.3321 24.7922 34.229 26.0441 33.5954 27.3266L31.2296 26.0599C31.545 25.4046 31.6067 24.7597 31.4148 24.1252C31.2297 23.4944 30.8203 23.0094 30.1867 22.6701C29.374 22.2349 28.5886 22.1955 27.8307 22.5518C27.0764 22.9012 26.375 23.6733 25.7265 24.868L25.5108 25.2709C24.8617 26.4831 24.5937 27.5049 24.7068 28.3365C24.8305 29.1648 25.3055 29.8002 26.132 30.2427Z" fill="#FFF4C7"/>
<path d="M42.7193 37.3342C43.3942 37.5577 44.0192 37.5466 44.5943 37.3008C45.1695 37.0551 45.5677 36.6479 45.7889 36.0793L48.3365 36.9229C48.0587 37.6621 47.593 38.2856 46.9394 38.7934C46.2881 39.2937 45.5254 39.609 44.651 39.7391C43.7767 39.8693 42.9057 39.7908 42.038 39.5034C40.3545 38.946 39.2 37.9588 38.5746 36.5419C37.9492 35.1251 37.9546 33.4562 38.5907 31.5354L38.6828 31.2573C39.2894 29.4254 40.2639 28.1227 41.6063 27.3493C42.9512 26.5684 44.4691 26.4579 46.1601 27.0179C47.5915 27.4918 48.6171 28.2964 49.237 29.4317C49.8667 30.5619 49.9791 31.813 49.5742 33.185L47.0267 32.3414C47.2254 31.6418 47.1759 30.9959 46.8783 30.4035C46.5881 29.8137 46.1018 29.4057 45.4195 29.1798C44.5444 28.89 43.7639 28.9854 43.078 29.4661C42.3946 29.9393 41.8355 30.8199 41.4008 32.1079L41.2571 32.5418C40.8249 33.8471 40.7356 34.8997 40.9891 35.6997C41.2526 36.4946 41.8293 37.0395 42.7193 37.3342Z" fill="#FFF4C7"/>
<path d="M62.3164 43.8533C62.2284 43.5953 62.1784 43.189 62.1663 42.6342C61.1306 43.4356 59.9637 43.7396 58.6655 43.5461C57.406 43.3584 56.4318 42.8459 55.743 42.0087C55.0542 41.1714 54.7887 40.2235 54.9465 39.1649C55.1458 37.8281 55.7929 36.8779 56.8879 36.3144C57.9918 35.7444 59.4672 35.597 61.314 35.8722L63.041 36.1296L63.1636 35.3067C63.2604 34.6576 63.156 34.1128 62.8504 33.6723C62.5459 33.2241 62.0228 32.9447 61.281 32.8342C60.6396 32.7386 60.09 32.8225 59.6321 33.086C59.1753 33.3418 58.9101 33.717 58.8364 34.2115L56.0199 33.7917C56.1224 33.104 56.4459 32.4966 56.9905 31.9696C57.5362 31.4348 58.2246 31.0556 59.0557 30.8319C59.8946 30.6094 60.797 30.5701 61.7629 30.7141C63.231 30.9329 64.3464 31.4783 65.109 32.3502C65.8728 33.2144 66.1666 34.3167 65.9905 35.6569L65.1475 41.3132C64.9794 42.4414 65.0036 43.3652 65.2202 44.0847L65.1909 44.2817L62.3164 43.8533ZM59.5239 41.3637C60.0803 41.4466 60.622 41.3891 61.1492 41.1912C61.684 40.9945 62.109 40.6866 62.4243 40.2675L62.7767 37.903L61.2583 37.6767C60.2151 37.5212 59.4038 37.5859 58.8242 37.8708C58.2446 38.1556 57.9053 38.6303 57.8062 39.2949C57.7256 39.8358 57.8389 40.295 58.1459 40.6725C58.4619 41.0434 58.9212 41.2738 59.5239 41.3637Z" fill="#FFF4C7"/>
<path d="M80.1454 41.1262C80.1333 40.6186 79.9132 40.237 79.4851 39.9815C79.0648 39.7259 78.368 39.508 77.3947 39.3281C76.4213 39.1481 75.6068 38.9097 74.9511 38.6128C73.5132 37.9594 72.7787 36.9805 72.7476 35.6762C72.7215 34.5828 73.1605 33.658 74.0646 32.9018C74.9687 32.1457 76.1315 31.7506 77.5529 31.7167C79.0681 31.6805 80.2994 32.0262 81.2467 32.7538C82.2018 33.4813 82.6937 34.4424 82.7222 35.6374L79.8753 35.7054C79.8623 35.1586 79.6484 34.7105 79.2337 34.3609C78.8188 34.0035 78.2755 33.8329 77.6038 33.8489C76.979 33.8638 76.4709 34.0205 76.0794 34.319C75.6958 34.6173 75.5098 35.0086 75.5214 35.4928C75.5318 35.9302 75.7234 36.2655 76.0963 36.4989C76.4692 36.7322 77.217 36.9606 78.3399 37.1838C79.4625 37.3993 80.3442 37.6713 80.9851 37.9999C81.6335 38.3204 82.1158 38.7153 82.4317 39.1844C82.7555 39.6534 82.9255 40.2276 82.9417 40.9071C82.9689 42.0474 82.5185 42.9842 81.5904 43.7175C80.6622 44.443 79.4326 44.824 77.9018 44.8605C76.863 44.8853 75.9331 44.72 75.1118 44.3645C74.2906 44.009 73.6457 43.5086 73.177 42.8633C72.7084 42.2181 72.465 41.5167 72.4469 40.7591L75.2118 40.6931C75.2668 41.3638 75.5331 41.8771 76.0105 42.233C76.4876 42.5811 77.1129 42.7459 77.8861 42.7275C78.6359 42.7096 79.2027 42.5554 79.5865 42.2649C79.9701 41.9666 80.1564 41.5871 80.1454 41.1262Z" fill="#FFF4C7"/>
<path d="M94.3982 42.9944L91.5902 43.4679L89.4819 30.9647L92.2899 30.4912L94.3982 42.9944ZM88.7611 27.7468C88.6883 27.3154 88.7627 26.9344 88.9843 26.6039C89.2136 26.2721 89.5824 26.0633 90.0909 25.9776C90.5993 25.8919 91.0163 25.9681 91.3417 26.2064C91.6671 26.4447 91.8661 26.7795 91.9389 27.2109C92.0103 27.6346 91.9314 28.0124 91.7021 28.3442C91.4716 28.6683 91.102 28.8732 90.5936 28.9589C90.0851 29.0447 89.6689 28.9723 89.3448 28.7417C89.0271 28.5021 88.8325 28.1705 88.7611 27.7468Z" fill="#FFF4C7"/>
<path d="M101.03 35.1203C100.645 33.9392 100.533 32.8008 100.693 31.7049C100.851 30.6016 101.272 29.6595 101.954 28.8784C102.634 28.0899 103.523 27.5166 104.623 27.1584C106.249 26.6283 107.738 26.7223 109.09 27.4405C110.449 28.1563 111.451 29.3662 112.097 31.0703L112.315 31.7018C112.702 32.8903 112.818 34.0276 112.662 35.1136C112.514 36.1972 112.097 37.1344 111.409 37.9253C110.73 38.7138 109.833 39.2895 108.718 39.6526C107.017 40.2069 105.47 40.0865 104.077 39.2914C102.689 38.4865 101.688 37.1407 101.073 35.254L101.03 35.1203ZM103.813 34.472C104.218 35.7125 104.791 36.6021 105.534 37.1407C106.274 37.672 107.1 37.7887 108.014 37.491C108.928 37.1933 109.521 36.6056 109.794 35.7279C110.074 34.8478 109.99 33.7207 109.542 32.3465C109.145 31.1282 108.567 30.2485 107.807 29.7073C107.055 29.1636 106.229 29.0382 105.331 29.3311C104.447 29.6191 103.86 30.2007 103.57 31.0758C103.277 31.9435 103.358 33.0755 103.813 34.472Z" fill="#FFF4C7"/>
<path d="M118.053 21.9493L118.823 23.1983C119.108 21.7557 119.92 20.6717 121.259 19.9462C123.581 18.6886 125.483 19.378 126.964 22.0142L130.954 29.3819L128.45 30.7381L124.538 23.5146C124.155 22.807 123.718 22.3687 123.226 22.1995C122.738 22.0197 122.147 22.1177 121.453 22.4935C120.443 23.0404 119.938 23.9046 119.939 25.0862L124.236 33.0207L121.732 34.3768L115.693 23.2273L118.053 21.9493Z" fill="#FFF4C7"/>
<path d="M141.867 17.3048C141.551 16.9077 141.145 16.7368 140.649 16.792C140.16 16.8424 139.473 17.09 138.589 17.535C137.705 17.98 136.912 18.2824 136.21 18.4422C134.67 18.7908 133.493 18.455 132.68 17.4348C131.998 16.5795 131.789 15.5774 132.052 14.4285C132.315 13.2797 133.003 12.2621 134.114 11.3759C135.3 10.4312 136.489 9.96233 137.684 9.96934C138.885 9.97149 139.857 10.4399 140.602 11.3746L138.376 13.1496C138.035 12.7219 137.593 12.4942 137.052 12.4664C136.505 12.4325 135.969 12.6249 135.444 13.0437C134.955 13.4332 134.645 13.8652 134.514 14.3396C134.388 14.8091 134.477 15.2333 134.779 15.612C135.051 15.9542 135.407 16.1055 135.845 16.066C136.283 16.0265 137.017 15.7563 138.046 15.2555C139.071 14.7485 139.937 14.4323 140.647 14.3066C141.357 14.17 141.98 14.1931 142.515 14.3759C143.056 14.5537 143.539 14.9084 143.963 15.4399C144.674 16.3319 144.881 17.3504 144.585 18.4956C144.284 19.6346 143.535 20.6814 142.337 21.6358C141.525 22.2834 140.684 22.7139 139.815 22.927C138.946 23.1402 138.13 23.1315 137.366 22.9007C136.603 22.67 135.985 22.2583 135.513 21.6657L137.675 19.9419C138.125 20.4429 138.647 20.6909 139.242 20.6859C139.833 20.6748 140.431 20.4281 141.035 19.9461C141.622 19.4786 141.98 19.0131 142.11 18.5497C142.236 18.0802 142.155 17.6652 141.867 17.3048Z" fill="#FFF4C7"/>
</svg>
