<svg width="148" height="45" viewBox="0 0 148 45" fill="none" xmlns="http://www.w3.org/2000/svg">
<path d="M18.5407 28.2838C19.4691 30.011 19.8185 31.6016 19.5888 33.0554C19.3555 34.5024 18.5782 35.581 17.2569 36.2912C16.032 36.9496 14.8351 37.0741 13.666 36.6648L16.5123 41.96L14.004 43.3083L5.69267 27.8457L8.00482 26.6029L8.71835 27.6829C8.97381 26.3925 9.73463 25.407 11.0008 24.7265C12.3633 23.9941 13.7037 23.93 15.0218 24.5342C16.3431 25.1278 17.4883 26.326 18.4574 28.1289L18.5407 28.2838ZM15.9262 29.4097C15.327 28.2949 14.628 27.5309 13.8294 27.1176C13.0376 26.7005 12.2288 26.714 11.403 27.1578C10.3777 27.709 9.86885 28.528 9.87652 29.6148L12.5397 34.5694C13.4599 35.1923 14.4361 35.2264 15.4683 34.6716C16.2666 34.2425 16.7174 33.5878 16.8207 32.7074C16.9271 31.8164 16.629 30.7172 15.9262 29.4097Z" fill="#FFF4C7"/>
<path d="M25.7332 24.7961C25.3209 23.6243 25.1822 22.4887 25.3172 21.3894C25.4496 20.2828 25.8477 19.3311 26.5115 18.5343C27.1728 17.7302 28.0487 17.1363 29.1394 16.7525C30.7534 16.1847 32.2443 16.244 33.6122 16.9305C34.9874 17.6144 36.0177 18.8006 36.7029 20.4892L36.9356 21.1154C37.3505 22.2946 37.4928 23.4288 37.3626 24.5182C37.2398 25.6049 36.8441 26.5516 36.1755 27.3583C35.5143 28.1624 34.6309 28.7589 33.5255 29.1479C31.8378 29.7417 30.2884 29.6574 28.8773 28.895C27.4709 28.1227 26.4384 26.8006 25.7798 24.9287L25.7332 24.7961ZM28.5011 24.0831C28.9341 25.3138 29.528 26.1898 30.2829 26.711C31.0351 27.2248 31.8645 27.3223 32.7709 27.0033C33.6774 26.6844 34.2567 26.083 34.509 25.1992C34.7685 24.3128 34.6585 23.1879 34.1788 21.8245C33.7535 20.6159 33.1548 19.7499 32.3827 19.2265C31.6179 18.7005 30.7896 18.5944 29.8979 18.9082C29.0209 19.2167 28.4476 19.8118 28.1781 20.6934C27.9059 21.5677 28.0136 22.6976 28.5011 24.0831Z" fill="#FFF4C7"/>
<path d="M50.6633 13.9444C50.2834 13.9591 49.8984 14.0068 49.5082 14.0874C48.2305 14.3515 47.471 15.019 47.2296 16.09L48.9848 24.5824L46.1961 25.1588L43.6298 12.7415L46.2922 12.1912L46.6481 13.5656C47.0984 12.3477 47.9203 11.6154 49.1139 11.3688C49.5117 11.2865 49.8518 11.2721 50.134 11.3255L50.6633 13.9444Z" fill="#FFF4C7"/>
<path d="M61.81 6.793L62.0985 9.8615L64.3269 9.65196L64.5244 11.7521L62.2959 11.9616L62.9585 19.0086C63.0039 19.4909 63.1301 19.8321 63.3373 20.0324C63.5515 20.2241 63.9036 20.2969 64.3936 20.2509C64.7203 20.2201 65.0472 20.1502 65.3744 20.0409L65.5806 22.2344C64.9518 22.474 64.338 22.6219 63.7391 22.6783C61.5612 22.883 60.3592 21.7837 60.1333 19.3802L59.4608 12.2282L57.384 12.4235L57.1865 10.3233L59.2633 10.1281L58.9748 7.05957L61.81 6.793Z" fill="#FFF4C7"/>
<path d="M79.244 12.0523C78.8701 11.9837 78.4839 11.9462 78.0855 11.9397C76.781 11.9184 75.8941 12.404 75.4247 13.3965L75.2833 22.0672L72.436 22.0208L72.6428 9.34276L75.3612 9.38709L75.4083 10.806C76.1137 9.71581 77.0757 9.18064 78.2943 9.20051C78.7005 9.20713 79.0355 9.26729 79.2993 9.38098L79.244 12.0523Z" fill="#FFF4C7"/>
<path d="M93.6139 23.7174C93.5257 23.4596 93.4752 23.0533 93.4624 22.4986C92.4277 23.3012 91.2611 23.6066 89.9627 23.4147C88.703 23.2285 87.7282 22.7172 87.0384 21.8808C86.3486 21.0444 86.0819 20.0968 86.2384 19.038C86.436 17.7009 87.082 16.75 88.1764 16.1852C89.2796 15.6138 90.7547 15.4646 92.6019 15.7376L94.3292 15.9929L94.4508 15.1698C94.5468 14.5206 94.4417 13.976 94.1356 13.5359C93.8306 13.088 93.3071 12.8093 92.5652 12.6996C91.9237 12.6048 91.3742 12.6894 90.9166 12.9535C90.4602 13.2098 90.1954 13.5853 90.1223 14.0799L87.3052 13.6635C87.4069 12.9757 87.7297 12.3679 88.2736 11.8402C88.8187 11.3048 89.5067 10.9247 90.3375 10.7C91.1761 10.4765 92.0784 10.4361 93.0445 10.5789C94.5129 10.7959 95.6289 11.34 96.3926 12.211C97.1574 13.0743 97.4526 14.1762 97.2782 15.5166L96.442 21.1739C96.2752 22.3023 96.3006 23.2261 96.5181 23.9453L96.489 24.1424L93.6139 23.7174ZM90.8185 21.2312C91.375 21.3135 91.9166 21.2553 92.4435 21.0568C92.9781 20.8594 93.4028 20.551 93.7175 20.1315L94.067 17.7666L92.5484 17.5421C91.505 17.3879 90.6937 17.4536 90.1145 17.7392C89.5353 18.0247 89.1965 18.4999 89.0983 19.1645C89.0183 19.7055 89.1321 20.1646 89.4397 20.5417C89.7561 20.9123 90.2157 21.1421 90.8185 21.2312Z" fill="#FFF4C7"/>
<path d="M106.44 26.6419L103.695 25.885L107.065 13.6614L109.811 14.4182L106.44 26.6419ZM107.771 10.4401C107.887 10.0184 108.116 9.70448 108.456 9.49849C108.804 9.29458 109.227 9.26115 109.724 9.3982C110.221 9.53524 110.566 9.78048 110.761 10.1339C110.955 10.4873 110.994 10.8749 110.878 11.2967C110.764 11.7109 110.533 12.02 110.185 12.2239C109.839 12.4203 109.417 12.4499 108.92 12.3129C108.423 12.1758 108.076 11.9344 107.88 11.5885C107.693 11.2371 107.657 10.8544 107.771 10.4401Z" fill="#FFF4C7"/>
<path d="M123.786 15.9156L122.668 18.7881L124.754 19.5994L123.99 21.5653L121.904 20.754L119.338 27.3507C119.163 27.8022 119.122 28.1638 119.218 28.4356C119.324 28.703 119.606 28.9259 120.064 29.1043C120.37 29.2233 120.694 29.3072 121.035 29.3562L120.237 31.4095C119.567 31.3419 118.952 31.1991 118.391 30.981C116.353 30.1881 115.771 28.6667 116.646 26.4168L119.25 19.7218L117.306 18.9657L118.07 16.9997L120.014 17.7558L121.132 14.8834L123.786 15.9156Z" fill="#FFF4C7"/>
<path d="M134.353 34.5775C134.596 34.1312 134.595 33.6907 134.351 33.256C134.113 32.825 133.618 32.2892 132.863 31.6485C132.109 31.0079 131.521 30.3956 131.1 29.8116C130.178 28.529 130.029 27.3145 130.651 26.1678C131.173 25.2065 132.014 24.623 133.175 24.4174C134.335 24.2117 135.54 24.448 136.79 25.1263C138.122 25.8493 139.018 26.7622 139.477 27.8648C139.943 28.9712 139.891 30.0497 139.321 31.1002L136.818 29.7418C137.079 29.2611 137.117 28.766 136.931 28.2564C136.749 27.7398 136.363 27.3213 135.772 27.0008C135.223 26.7027 134.704 26.5856 134.216 26.6496C133.735 26.7173 133.379 26.964 133.148 27.3897C132.939 27.7742 132.938 28.1605 133.146 28.5485C133.353 28.9365 133.888 29.5068 134.75 30.2595C135.617 31.0053 136.246 31.6802 136.638 32.2842C137.041 32.885 137.263 33.4676 137.303 34.0318C137.35 34.5997 137.212 35.1823 136.888 35.7797C136.343 36.7822 135.486 37.3703 134.316 37.5442C133.15 37.7112 131.894 37.4295 130.548 36.699C129.635 36.2034 128.911 35.5969 128.376 34.8798C127.841 34.1626 127.53 33.4075 127.445 32.6146C127.36 31.8217 127.498 31.0922 127.86 30.4262L130.29 31.7455C130.004 32.3546 129.979 32.9324 130.216 33.4787C130.457 34.0181 130.917 34.4723 131.597 34.8413C132.256 35.1991 132.824 35.3476 133.302 35.2867C133.783 35.219 134.133 34.9826 134.353 34.5775Z" fill="#FFF4C7"/>
</svg>
