<svg width="78" height="63" viewBox="0 0 78 63" fill="none" xmlns="http://www.w3.org/2000/svg">
<path d="M16.262 47.0575L16.4926 38.0809L19.4214 37.2844L18.3906 52.6966C18.2039 54.9576 17.2173 56.3311 15.4306 56.8169C15.0311 56.9256 14.5716 56.9777 14.0522 56.9732L13.4741 54.8473L14.0035 54.7397C14.697 54.5511 15.1824 54.2815 15.4594 53.9309C15.7461 53.5858 15.9102 53.0877 15.9518 52.4368L16.0616 51.2776L8.45258 40.2673L11.4153 39.4616L16.262 47.0575Z" fill="#44493E"/>
<path d="M26.533 41.3776C26.025 40.244 25.7927 39.1239 25.8362 38.0172C25.8764 36.9033 26.1942 35.9219 26.7897 35.0729C27.382 34.2168 28.2057 33.5523 29.2609 33.0794C30.8222 32.3798 32.3129 32.3153 33.733 32.886C35.1602 33.4536 36.2852 34.5504 37.108 36.1764L37.3919 36.7811C37.9031 37.9218 38.1389 39.0404 38.0995 40.1368C38.0671 41.2299 37.7512 42.2062 37.1518 43.0655C36.5595 43.9217 35.7286 44.5894 34.6592 45.0686C33.0266 45.8002 31.4755 45.8446 30.0061 45.2019C28.5405 44.5488 27.402 43.3168 26.5905 41.5059L26.533 41.3776ZM29.2323 40.4376C29.7659 41.6282 30.4303 42.452 31.2258 42.9088C32.018 43.3585 32.8526 43.3869 33.7295 42.9939C34.6064 42.601 35.1339 41.9537 35.312 41.052C35.4972 40.1471 35.2943 39.0352 34.7033 37.7163C34.1793 36.5471 33.5109 35.7337 32.698 35.2761C31.8923 34.8153 31.058 34.7782 30.1954 35.1648C29.347 35.545 28.825 36.1855 28.6295 37.0864C28.4307 37.9802 28.6317 39.0973 29.2323 40.4376Z" fill="#44493E"/>
<path d="M43.0953 33.4151C42.007 31.7746 41.523 30.2112 41.6434 28.725C41.766 27.2281 42.4653 26.0563 43.7413 25.2099C44.9457 24.4109 46.1715 24.2024 47.4187 24.5845L46.82 23.4488L48.9587 22.0301L55.7542 32.274C56.6741 33.6607 56.9667 35.0416 56.632 36.4168C56.3039 37.7876 55.4074 38.9589 53.9426 39.9306C53.1678 40.4445 52.3014 40.7849 51.3433 40.9517C50.396 41.1207 49.5576 41.0722 48.828 40.8062L49.0052 38.6355C50.3087 39.0177 51.4944 38.8546 52.5621 38.1463C53.3498 37.6238 53.829 36.9965 53.9997 36.2645C54.1747 35.539 53.988 34.7629 53.4395 33.9361L52.9666 33.2232C52.7883 34.4384 52.1295 35.4238 50.9902 36.1796C49.7532 37.0002 48.4148 37.1802 46.975 36.7197C45.5416 36.2549 44.2484 35.1534 43.0953 33.4151ZM45.5945 32.0525C46.2985 33.1137 47.0683 33.8078 47.9039 34.1347C48.7418 34.4508 49.5448 34.354 50.313 33.8444C51.27 33.2096 51.7075 32.3287 51.6256 31.2018L48.5421 26.5534C47.5616 26.0506 46.5929 26.1167 45.6359 26.7515C44.8547 27.2698 44.4511 27.9828 44.4252 28.8907C44.4058 29.7942 44.7956 30.8481 45.5945 32.0525Z" fill="#44493E"/>
<path d="M68.3835 22.0659C68.1274 21.9729 67.7793 21.7573 67.3394 21.4192C67.3151 22.7285 66.821 23.8285 65.8569 24.7191C64.9215 25.5832 63.9118 26.0215 62.8277 26.0338C61.7436 26.0462 60.8384 25.6592 60.1121 24.8731C59.195 23.8803 58.8598 22.7806 59.1067 21.5741C59.3539 20.3566 60.1633 19.1143 61.5348 17.8473L62.8174 16.6624L62.2528 16.0513C61.8075 15.5692 61.3174 15.3093 60.7827 15.2716C60.2426 15.2281 59.6971 15.4608 59.1462 15.9697C58.6699 16.4097 58.391 16.8907 58.3095 17.4127C58.2227 17.9289 58.349 18.3707 58.6882 18.738L56.5965 20.6703C56.1247 20.1596 55.854 19.5269 55.7844 18.7722C55.7094 18.0118 55.8451 17.2377 56.1915 16.4498C56.5436 15.6565 57.0783 14.9286 57.7956 14.2659C58.8859 13.2587 60.0098 12.731 61.1672 12.6828C62.3192 12.6289 63.3625 13.0904 64.2968 14.0673L68.1774 18.2679C68.9514 19.1058 69.6866 19.6656 70.3831 19.9475L70.5183 20.0939L68.3835 22.0659ZM64.6936 22.6828C65.1068 22.3011 65.4014 21.8428 65.5774 21.308C65.7591 20.7678 65.7854 20.2437 65.6562 19.7354L64.034 17.9794L62.9064 19.0211C62.1317 19.7368 61.6738 20.4098 61.5328 21.04C61.3917 21.6702 61.5491 22.232 62.005 22.7255C62.3761 23.1272 62.805 23.3267 63.2916 23.3238C63.7787 23.3099 64.246 23.0963 64.6936 22.6828Z" fill="#44493E"/>
</svg>
