<svg width="112" height="98" viewBox="0 0 112 98" fill="none" xmlns="http://www.w3.org/2000/svg">
<path d="M14.0613 21.3952C14.5344 21.9259 15.0814 22.2284 15.7024 22.3027C16.3234 22.3771 16.8718 22.2232 17.3474 21.841L19.1333 23.8441C18.5235 24.3458 17.8086 24.6535 16.9887 24.7669C16.1746 24.8752 15.3564 24.7674 14.5339 24.4435C13.7114 24.1197 12.996 23.6166 12.3877 22.9343C11.2075 21.6106 10.7004 20.1788 10.8661 18.639C11.0319 17.0991 11.87 15.656 13.3803 14.3094L13.599 14.1145C15.0394 12.8303 16.5342 12.1884 18.0835 12.1888C19.6387 12.1839 21.0089 12.8462 22.1943 14.1758C23.1977 15.3013 23.6844 16.5106 23.6546 17.8036C23.6357 19.0974 23.1083 20.2374 22.0723 21.2238L20.2865 19.2207C20.808 18.7139 21.0878 18.1295 21.1257 17.4677C21.1689 16.8117 20.9513 16.2155 20.473 15.679C19.8595 14.9909 19.1357 14.6838 18.3014 14.7577C17.473 14.8263 16.5489 15.3101 15.529 16.2089L15.1879 16.513C14.1615 17.428 13.5584 18.2954 13.3786 19.1151C13.2099 19.9354 13.4374 20.6954 14.0613 21.3952Z" fill="#44493E"/>
<path d="M25.485 27.2618C26.3541 26.3743 27.3117 25.7484 28.3575 25.3839C29.4089 25.0139 30.4386 24.9507 31.4466 25.1944C32.46 25.4324 33.3798 25.956 34.2059 26.765C35.4282 27.9622 36.0335 29.326 36.0218 30.8564C36.0157 32.3923 35.4065 33.8406 34.1941 35.2012L33.7351 35.6866C32.8605 36.5796 31.9057 37.2083 30.8709 37.5726C29.8417 37.9424 28.8175 38.0056 27.7985 37.762C26.785 37.524 25.8596 36.9949 25.0224 36.175C23.7443 34.9231 23.1356 33.4958 23.1962 31.8931C23.268 30.2902 23.9981 28.7799 25.3866 27.3622L25.485 27.2618ZM27.3472 29.4301C26.4343 30.3622 25.9107 31.282 25.7765 32.1894C25.6478 33.0913 25.9267 33.8784 26.6132 34.5508C27.2997 35.2232 28.0951 35.4773 28.9995 35.3132C29.9094 35.1546 30.87 34.559 31.8813 33.5264C32.7778 32.6111 33.2903 31.6914 33.4188 30.7675C33.5529 29.849 33.2822 29.059 32.6069 28.3976C31.9427 27.7471 31.1556 27.4956 30.2456 27.6432C29.341 27.7852 28.3749 28.3808 27.3472 29.4301Z" fill="#44493E"/>
<path d="M45.4717 37.5167L44.5844 38.6851C46.0326 38.4306 47.3366 38.7972 48.4964 39.785C50.5067 41.4972 50.5495 43.5193 48.6248 45.8515L43.1919 52.2303L41.0239 50.3839L46.3505 44.1299C46.8723 43.5173 47.1234 42.9513 47.104 42.4319C47.0956 41.9117 46.791 41.3957 46.1903 40.8841C45.316 40.1394 44.3279 39.9803 43.2259 40.4066L37.3751 47.2761L35.2072 45.4296L43.4287 35.7767L45.4717 37.5167Z" fill="#44493E"/>
<path d="M62.3626 47.1915L60.5049 49.6508L62.2909 50.9999L61.0194 52.683L59.2335 51.3339L54.9671 56.9817C54.6751 57.3682 54.538 57.7052 54.5558 57.9928C54.5845 58.2788 54.7952 58.5702 55.1879 58.8669C55.4497 59.0646 55.7382 59.2336 56.0534 59.3738L54.7254 61.1317C54.0997 60.8842 53.5469 60.5792 53.0669 60.2166C51.3214 58.8981 51.1762 57.2757 52.6313 55.3494L56.9612 49.6175L55.2968 48.3601L56.5683 46.677L58.2327 47.9343L60.0904 45.4751L62.3626 47.1915Z" fill="#44493E"/>
<path d="M66.8851 69.6267C66.9161 69.3559 67.0448 68.9672 67.2713 68.4607C65.9922 68.7417 64.8075 68.5169 63.717 67.7865C62.6591 67.0777 61.998 66.1976 61.7338 65.1461C61.4697 64.0946 61.6354 63.1242 62.2311 62.235C62.9834 61.1121 63.9749 60.5304 65.2057 60.4898C66.4474 60.4471 67.8439 60.9454 69.3951 61.9846L70.8458 62.9564L71.3089 62.2651C71.6741 61.7199 71.8129 61.1828 71.7253 60.6539C71.642 60.1186 71.2888 59.6422 70.6657 59.2247C70.1269 58.8638 69.5943 58.7045 69.0676 58.7466C68.5454 58.7823 68.1451 59.0078 67.8668 59.4232L65.5009 57.8383C65.8879 57.2607 66.4403 56.8502 67.1581 56.607C67.8802 56.3572 68.6647 56.3091 69.5115 56.4627C70.3649 56.6206 71.1972 56.9714 72.0086 57.5149C73.2418 58.341 74.0164 59.3113 74.3325 60.4258C74.6528 61.5337 74.4466 62.6557 73.7139 63.7916L70.531 68.5428C69.8962 69.4904 69.5227 70.3357 69.4105 71.0787L69.2997 71.2442L66.8851 69.6267ZM65.427 66.1814C65.8943 66.4945 66.4085 66.6744 66.9696 66.7212C67.5372 66.7723 68.0531 66.6759 68.5174 66.4321L69.8479 64.446L68.5725 63.5916C67.6963 63.0046 66.9353 62.7158 66.2895 62.7251C65.6438 62.7345 65.134 63.0183 64.76 63.5765C64.4557 64.0309 64.3615 64.4944 64.4774 64.967C64.6042 65.4375 64.9207 65.8423 65.427 66.1814Z" fill="#44493E"/>
<path d="M81.354 76.1349C81.9694 76.4909 82.5837 76.607 83.1968 76.4833C83.8098 76.3595 84.2825 76.0417 84.6146 75.5299L86.9376 76.8735C86.5155 77.5409 85.9328 78.0568 85.1896 78.4211C84.4503 78.7787 83.6394 78.9324 82.7568 78.8822C81.8743 78.832 81.0374 78.5781 80.2462 78.1205C78.7111 77.2325 77.7813 76.0314 77.4568 74.517C77.1324 73.0027 77.4767 71.3697 78.4898 69.6182L78.6365 69.3646C79.6027 67.6942 80.8216 66.6167 82.2931 66.1321C83.7687 65.6408 85.2774 65.8411 86.8193 66.7329C88.1245 67.4879 88.9652 68.4841 89.3415 69.7216C89.7285 70.9562 89.5843 72.2041 88.9091 73.4651L86.5861 72.1215C86.9228 71.4769 87.0056 70.8344 86.8346 70.1939C86.6702 69.5574 86.277 69.0592 85.6548 68.6993C84.8568 68.2377 84.0732 68.1726 83.304 68.5038C82.5387 68.8283 81.8124 69.5769 81.125 70.7498L80.8962 71.1454C80.2077 72.3356 79.9064 73.3481 79.9921 74.1829C80.0885 75.0149 80.5425 75.6655 81.354 76.1349Z" fill="#44493E"/>
<path d="M101.96 71.6512L100.571 74.4023L102.569 75.4113L101.618 77.2942L99.6199 76.2851L96.429 82.6032C96.2106 83.0356 96.1358 83.3916 96.2046 83.6714C96.2838 83.9477 96.5431 84.1969 96.9824 84.4187C97.2753 84.5667 97.5893 84.6815 97.9244 84.7632L96.9312 86.7297C96.2714 86.5978 95.673 86.3962 95.136 86.1251C93.1834 85.1389 92.7513 83.5684 93.8396 81.4136L97.0781 75.0014L95.2161 74.061L96.1671 72.1781L98.029 73.1185L99.4184 70.3674L101.96 71.6512Z" fill="#44493E"/>
</svg>
