<svg width="34" height="34" viewBox="0 0 34 34" fill="none" xmlns="http://www.w3.org/2000/svg">
<path d="M25 1H9C4.58172 1 1 4.58172 1 9V25C1 29.4183 4.58172 33 9 33H25C29.4183 33 33 29.4183 33 25V9C33 4.58172 29.4183 1 25 1Z" stroke="#EEA66D" stroke-width="2" stroke-linecap="round" stroke-linejoin="round"/>
<path d="M23.4027 15.9925C23.6001 17.3241 23.3727 18.684 22.7527 19.8789C22.1327 21.0738 21.1517 22.0427 19.9493 22.648C18.7468 23.2532 17.3842 23.4638 16.0551 23.25C14.7261 23.0361 13.4983 22.4086 12.5464 21.4567C11.5945 20.5049 10.967 19.2771 10.7532 17.948C10.5393 16.619 10.75 15.2563 11.3552 14.0539C11.9604 12.8514 12.9294 11.8705 14.1242 11.2505C15.3191 10.6305 16.6791 10.403 18.0107 10.6005C19.3689 10.8019 20.6264 11.4348 21.5974 12.4058C22.5683 13.3767 23.2012 14.6342 23.4027 15.9925Z" stroke="#EEA66D" stroke-width="2" stroke-linecap="round" stroke-linejoin="round"/>
<path d="M25.8008 8.19922H25.8168" stroke="#EEA66D" stroke-width="2" stroke-linecap="round" stroke-linejoin="round"/>
</svg>
