<svg width="34" height="34" viewBox="0 0 34 34" fill="none" xmlns="http://www.w3.org/2000/svg">
<path d="M25 1H9C4.58172 1 1 4.58172 1 9V25C1 29.4183 4.58172 33 9 33H25C29.4183 33 33 29.4183 33 25V9C33 4.58172 29.4183 1 25 1Z" stroke="#ABABAA" stroke-width="2" stroke-linecap="round" stroke-linejoin="round"/>
<path d="M23.4007 15.9925C23.5982 17.3241 23.3707 18.684 22.7507 19.8789C22.1307 21.0738 21.1497 22.0427 19.9473 22.648C18.7449 23.2532 17.3822 23.4638 16.0532 23.25C14.7241 23.0361 13.4963 22.4086 12.5444 21.4567C11.5926 20.5049 10.9651 19.2771 10.7512 17.948C10.5373 16.619 10.748 15.2563 11.3532 14.0539C11.9584 12.8514 12.9274 11.8705 14.1223 11.2505C15.3172 10.6305 16.6771 10.403 18.0087 10.6005C19.367 10.8019 20.6245 11.4348 21.5954 12.4058C22.5664 13.3767 23.1993 14.6342 23.4007 15.9925Z" stroke="#ABABAA" stroke-width="2" stroke-linecap="round" stroke-linejoin="round"/>
<path d="M25.8008 8.19922H25.8168" stroke="#ABABAA" stroke-width="2" stroke-linecap="round" stroke-linejoin="round"/>
</svg>
