<svg width="115" height="147" viewBox="0 0 115 147" fill="none" xmlns="http://www.w3.org/2000/svg">
<path d="M43.1438 128.697L43.4402 131.53L25.538 133.403L25.2416 130.571L43.1438 128.697Z" fill="#FFF4C7"/>
<path d="M42.7919 117.014L42.727 119.861L30.0506 119.572L30.1155 116.725L42.7919 117.014ZM26.7545 119.673C26.3171 119.663 25.957 119.518 25.6743 119.238C25.3917 118.95 25.2563 118.549 25.268 118.033C25.2798 117.518 25.4333 117.123 25.7287 116.848C26.0241 116.573 26.3905 116.441 26.8279 116.451C27.2575 116.461 27.6136 116.61 27.8961 116.897C28.1709 117.185 28.3024 117.587 28.2907 118.102C28.2789 118.617 28.1292 119.013 27.8417 119.287C27.5464 119.554 27.184 119.683 26.7545 119.673Z" fill="#FFF4C7"/>
<path d="M43.6028 107.409L33.1682 105.721L32.8593 107.63L30.7771 107.293L31.0859 105.384L29.9407 105.198C28.5525 104.974 27.5429 104.415 26.9119 103.521C26.2809 102.628 26.0777 101.487 26.3024 100.099C26.3823 99.605 26.5365 99.0918 26.7652 98.559L28.9519 98.9841C28.8403 99.2826 28.7514 99.6363 28.6853 100.045C28.4681 101.387 29.0498 102.17 30.4303 102.393L31.5408 102.573L31.9527 100.028L34.035 100.365L33.6231 102.91L44.0577 104.598L43.6028 107.409Z" fill="#FFF4C7"/>
<path d="M48.106 89.8509C47.5215 91.5583 46.5112 92.7607 45.075 93.4581C43.634 94.1456 42.0192 94.1832 40.2305 93.5708L39.8979 93.457C38.7005 93.047 37.7109 92.4523 36.9291 91.6726C36.1424 90.8831 35.6296 89.9809 35.3908 88.966C35.1519 87.9511 35.2084 86.9299 35.5601 85.9025C36.1193 84.2691 37.0719 83.1872 38.4177 82.6571C39.7661 82.1195 41.3937 82.1772 43.3007 82.83L44.3872 83.202L41.7037 91.0405C42.722 91.2983 43.6181 91.2376 44.392 90.8584C45.1684 90.4719 45.7072 89.8388 46.0083 88.9593C46.4309 87.7249 46.2761 86.5489 45.544 85.4312L47.4271 84.4533C47.9796 85.1791 48.3175 86.0132 48.4408 86.9555C48.5592 87.8879 48.4476 88.853 48.106 89.8509ZM37.7183 86.6538C37.4652 87.3929 37.519 88.0802 37.8795 88.7156C38.2425 89.3436 38.8645 89.8786 39.7454 90.3205L41.5028 85.1872L41.3032 85.1189C40.3812 84.8693 39.619 84.8768 39.0165 85.1412C38.4066 85.4031 37.9739 85.9073 37.7183 86.6538Z" fill="#FFF4C7"/>
<path d="M52.9711 70.8235C52.5305 70.571 52.0901 70.5617 51.6499 70.7956C51.2135 71.0228 50.6664 71.5061 50.0084 72.2456C49.3505 72.9851 48.7247 73.5584 48.1311 73.9656C46.8276 74.8574 45.6099 74.9789 44.4779 74.3301C43.529 73.7862 42.9652 72.9318 42.7864 71.7668C42.6077 70.6018 42.8718 69.4025 43.5789 68.1689C44.3325 66.8539 45.2659 65.9796 46.3789 65.5459C47.4957 65.1055 48.5727 65.1825 49.6098 65.7769L48.1937 68.2475C47.7193 67.9756 47.2251 67.9265 46.7113 68.1002C46.1907 68.2701 45.7634 68.6465 45.4293 69.2294C45.1185 69.7717 44.9895 70.2875 45.0421 70.7769C45.0987 71.2596 45.3371 71.6213 45.7573 71.8622C46.1369 72.0798 46.523 72.0895 46.9158 71.8913C47.3085 71.6932 47.891 71.1716 48.6635 70.3267C49.4291 69.4778 50.1184 68.8643 50.7313 68.4862C51.3413 68.0975 51.9288 67.8894 52.4938 67.862C53.0627 67.8279 53.6419 67.9798 54.2316 68.3178C55.2212 68.885 55.7894 69.7554 55.9362 70.9291C56.0761 72.0989 55.7654 73.348 55.004 74.6765C54.4873 75.578 53.8643 76.288 53.1349 76.8065C52.4055 77.3249 51.6435 77.6175 50.8488 77.6844C50.0541 77.7512 49.3281 77.5961 48.6706 77.2193L50.0458 74.8199C50.6481 75.1201 51.2252 75.1581 51.7768 74.934C52.3217 74.706 52.7864 74.2565 53.171 73.5855C53.544 72.9348 53.7056 72.37 53.6558 71.8913C53.5992 71.4086 53.371 71.0527 52.9711 70.8235Z" fill="#FFF4C7"/>
<path d="M51.9238 51.1359L54.3115 53.0847L55.7268 51.3507L57.361 52.6845L55.9456 54.4185L61.4291 58.8942C61.8043 59.2005 62.136 59.3502 62.424 59.3432C62.7109 59.3253 63.01 59.1257 63.3212 58.7444C63.5287 58.4902 63.7084 58.2083 63.8603 57.8986L65.567 59.2917C65.2962 59.9077 64.9706 60.4487 64.5902 60.9147C63.207 62.6094 61.5803 62.6935 59.7101 61.167L54.145 56.6246L52.826 58.2406L51.1919 56.9068L52.5109 55.2908L50.1232 53.342L51.9238 51.1359Z" fill="#FFF4C7"/>
<path d="M70.7962 48.3763L67.0022 40.2376L69.2692 38.2194L75.2148 52.4758C76.0553 54.5831 75.7841 56.2523 74.4012 57.4835C74.0919 57.7589 73.7038 58.0102 73.2369 58.2377L71.7719 56.5922L72.1979 56.26C72.7347 55.7821 73.049 55.3244 73.1408 54.8871C73.2436 54.4504 73.1686 53.9314 72.9158 53.3301L72.4974 52.2434L60.7791 45.7779L63.0723 43.7363L70.7962 48.3763Z" fill="#FFF4C7"/>
<path d="M85.6506 42.2634L83.2592 43.8094L73.4869 28.6931L75.8784 27.1471L85.6506 42.2634Z" fill="#FFF4C7"/>
<path d="M98.2665 35.8657C96.615 36.5935 95.0462 36.6658 93.5599 36.0829C92.0776 35.4896 90.9552 34.3279 90.1928 32.5978L90.0511 32.2761C89.5407 31.118 89.3071 29.9873 89.3502 28.884C89.3974 27.7704 89.713 26.7819 90.2972 25.9183C90.8814 25.0547 91.6703 24.4039 92.6641 23.966C94.244 23.2698 95.6851 23.2367 96.9872 23.8666C98.2964 24.4935 99.3574 25.7291 100.17 27.5736L100.633 28.6245L93.0517 31.9655C93.5525 32.8889 94.2046 33.5065 95.0079 33.8184C95.8185 34.1271 96.6491 34.0941 97.4998 33.7192C98.6937 33.193 99.4534 32.282 99.7787 30.9861L101.774 31.7075C101.615 32.6057 101.231 33.4196 100.622 34.149C100.017 34.8682 99.2316 35.4404 98.2665 35.8657ZM93.5748 26.0619C92.8599 26.3769 92.3911 26.8823 92.1684 27.5781C91.9528 28.2707 91.9812 29.0906 92.2534 30.0378L97.2185 27.8499L97.1335 27.6568C96.6919 26.8098 96.1697 26.2545 95.5669 25.9908C94.9609 25.72 94.2969 25.7437 93.5748 26.0619Z" fill="#FFF4C7"/>
</svg>
