<svg width="81" height="139" viewBox="0 0 81 139" fill="none" xmlns="http://www.w3.org/2000/svg">
<path d="M9.26454 17.6231L7.77947 15.1933L23.1379 5.8062L24.623 8.23595L9.26454 17.6231Z" fill="#FFF4C7"/>
<path d="M15.268 27.9146L13.8696 25.434L24.9151 19.2073L26.3135 21.688L15.268 27.9146ZM27.6973 17.4371C28.0784 17.2222 28.462 17.1629 28.8481 17.2592C29.2381 17.3622 29.5596 17.6384 29.8128 18.0875C30.066 18.5367 30.1358 18.9548 30.0221 19.3417C29.9084 19.7287 29.661 20.0296 29.2799 20.2444C28.9056 20.4554 28.5235 20.5094 28.1335 20.4063C27.7504 20.2995 27.4323 20.0214 27.1791 19.5723C26.9259 19.1231 26.8527 18.7069 26.9596 18.3238C27.0771 17.9437 27.323 17.6481 27.6973 17.4371Z" fill="#FFF4C7"/>
<path d="M19.9703 36.6051L29.37 31.77L28.4855 30.0506L30.3613 29.0857L31.2458 30.8052L32.2774 30.2745C33.5279 29.6313 34.6723 29.4819 35.7105 29.8264C36.7487 30.1709 37.5894 30.9685 38.2326 32.219C38.4613 32.6636 38.6418 33.1682 38.7741 33.7327L36.7619 34.6886C36.6746 34.3822 36.5362 34.0448 36.3468 33.6766C35.725 32.4678 34.7923 32.1832 33.5487 32.8229L32.5483 33.3375L33.7276 35.6301L31.8518 36.5949L30.6725 34.3023L21.2729 39.1373L19.9703 36.6051Z" fill="#FFF4C7"/>
<path d="M27.8491 53.3026C27.1001 51.6607 27.0073 50.0929 27.571 48.5992C28.145 47.1094 29.292 45.9721 31.0121 45.1873L31.332 45.0414C32.4834 44.516 33.611 44.2678 34.7147 44.2966C35.8288 44.3293 36.8214 44.6322 37.6925 45.2051C38.5636 45.778 39.2245 46.5585 39.6752 47.5465C40.3919 49.1173 40.4437 50.5577 39.8306 51.8679C39.2208 53.1852 37.999 54.2621 36.1652 55.0988L35.1204 55.5754L31.6814 48.0377C30.7647 48.5504 30.1555 49.2105 29.8541 50.0178C29.5559 50.8323 29.5997 51.6624 29.9856 52.5082C30.5271 53.6952 31.4479 54.443 32.748 54.7515L32.0525 56.7562C31.1522 56.6087 30.3335 56.2352 29.5962 55.6356C28.8693 55.0398 28.2869 54.2621 27.8491 53.3026ZM37.5913 48.4843C37.2671 47.7735 36.7556 47.3113 36.057 47.0976C35.3617 46.8911 34.5422 46.93 33.5986 47.2145L35.8507 52.1508L36.0427 52.0633C36.8839 51.6108 37.4324 51.0815 37.6882 50.4753C37.9512 49.8658 37.9189 49.2022 37.5913 48.4843Z" fill="#FFF4C7"/>
<path d="M38.7838 69.8211C39.2563 69.6351 39.5389 69.2971 39.6315 68.8073C39.7269 68.3247 39.6917 67.5955 39.5258 66.6197C39.3599 65.6439 39.3036 64.797 39.3568 64.0792C39.4756 62.5043 40.142 61.4779 41.3559 60.9999C42.3736 60.5992 43.393 60.6932 44.4141 61.282C45.4351 61.8707 46.2061 62.8266 46.727 64.1496C47.2823 65.5599 47.3813 66.8349 47.024 67.9747C46.6696 69.1218 45.9363 69.9143 44.8241 70.3522L43.7808 67.7025C44.2897 67.5022 44.6369 67.1472 44.8225 66.6375C45.0153 66.125 44.9886 65.5561 44.7425 64.931C44.5135 64.3494 44.1916 63.9262 43.7766 63.6614C43.3646 63.4038 42.9332 63.3638 42.4825 63.5412C42.0754 63.7015 41.8264 63.9968 41.7356 64.4272C41.6448 64.8576 41.6877 65.6384 41.8644 66.7695C42.0483 67.8977 42.0962 68.8192 42.0082 69.534C41.9303 70.2531 41.7255 70.8417 41.3937 71.2998C41.0647 71.7652 40.5841 72.1224 39.9516 72.3714C38.8903 72.7893 37.8557 72.6886 36.8479 72.0695C35.8473 71.4475 35.0666 70.4241 34.5056 68.9993C34.1249 68.0325 33.9602 67.1024 34.0115 66.209C34.0628 65.3156 34.3107 64.5379 34.7553 63.8758C35.1999 63.2138 35.7748 62.7439 36.4799 62.4663L37.4931 65.0397C36.8823 65.3222 36.4919 65.7487 36.322 66.3194C36.1593 66.8872 36.2196 67.531 36.503 68.2507C36.7778 68.9485 37.1175 69.4277 37.5223 69.6881C37.9344 69.9457 38.3549 69.99 38.7838 69.8211Z" fill="#FFF4C7"/>
<path d="M55.3763 79.4766L52.4601 80.4738L53.1843 82.5917L51.1884 83.2742L50.4642 81.1564L43.7669 83.4466C43.3085 83.6033 43.0062 83.8058 42.8599 84.054C42.7235 84.3071 42.7349 84.6664 42.8942 85.1321C43.0004 85.4426 43.1448 85.7442 43.3274 86.0367L41.2428 86.7496C40.8629 86.1942 40.5757 85.6319 40.3811 85.0627C39.6733 82.9929 40.4614 81.5674 42.7456 80.7863L49.5428 78.4619L48.8679 76.4882L50.8638 75.8056L51.5387 77.7794L54.4549 76.7821L55.3763 79.4766Z" fill="#FFF4C7"/>
<path d="M48.521 96.5492L57.5005 96.6015L58.355 99.5139L42.9253 98.7893C40.6611 98.6476 39.2683 97.6884 38.747 95.9117C38.6305 95.5144 38.5693 95.0561 38.5634 94.5367L40.6775 93.9165L40.7955 94.4436C40.9978 95.1333 41.277 95.6132 41.6331 95.8832C41.9838 96.163 42.485 96.3172 43.1366 96.3459L44.2979 96.4326L55.1548 88.6065L56.0192 91.5526L48.521 96.5492Z" fill="#FFF4C7"/>
<path d="M48.6339 112.656L47.9494 109.892L65.4218 105.566L66.1062 108.33L48.6339 112.656Z" fill="#FFF4C7"/>
<path d="M51.5338 126.805C51.1777 125.036 51.444 123.488 52.3325 122.162C53.2303 120.842 54.6059 119.995 56.4594 119.622L56.804 119.553C58.0448 119.303 59.1993 119.317 60.2675 119.597C61.345 119.882 62.2427 120.402 62.9607 121.158C63.6786 121.914 64.1447 122.825 64.359 123.889C64.6997 125.582 64.4226 126.996 63.5276 128.133C62.6343 129.277 61.1996 130.048 59.2236 130.446L58.0977 130.672L56.4629 122.55C55.4536 122.841 54.7103 123.345 54.2332 124.063C53.7576 124.788 53.6115 125.606 53.7949 126.518C54.0524 127.797 54.779 128.734 55.9748 129.33L54.8416 131.124C53.9985 130.776 53.2862 130.226 52.7046 129.474C52.1322 128.729 51.7419 127.839 51.5338 126.805ZM62.1165 124.329C61.9623 123.563 61.5694 122.996 60.9377 122.629C60.3075 122.27 59.5007 122.122 58.5171 122.184L59.5877 127.503L59.7945 127.462C60.7165 127.212 61.3711 126.822 61.758 126.29C62.1527 125.756 62.2722 125.102 62.1165 124.329Z" fill="#FFF4C7"/>
</svg>
