<svg width="153" height="105" viewBox="0 0 153 105" fill="none" xmlns="http://www.w3.org/2000/svg">
<path d="M11.5439 77.5905L12.0069 78.8338C12.5574 77.5809 13.5728 76.7299 15.053 76.2807C16.6753 75.7884 17.9737 76.072 18.9484 77.1315C19.4539 75.6228 20.5066 74.6257 22.1065 74.1402C23.4447 73.7341 24.5512 73.8024 25.4262 74.3452C26.3087 74.8856 26.9763 75.875 27.4291 77.3133L29.8487 85.2863L27.1237 86.1132L24.728 78.2187C24.4943 77.4487 24.1549 76.9353 23.7095 76.6786C23.2642 76.4218 22.6528 76.4114 21.8754 76.6474C21.2549 76.8357 20.7975 77.1581 20.5034 77.6148C20.2145 78.0617 20.0732 78.5781 20.0796 79.164L22.6158 87.4812L19.8908 88.3082L17.4679 80.3239C16.9972 78.9074 16.0517 78.4147 14.6312 78.8457C13.5398 79.1769 12.901 79.8565 12.715 80.8846L15.3829 89.6762L12.6579 90.5031L8.97592 78.3698L11.5439 77.5905Z" fill="#FFF4C7"/>
<path d="M34.7884 76.6792C34.3472 75.518 34.1804 74.3863 34.2881 73.284C34.393 72.1743 34.7674 71.2131 35.4112 70.4001C36.0523 69.5799 36.9133 68.9644 37.9942 68.5537C39.5935 67.946 41.0855 67.9684 42.47 68.6207C43.8617 69.2703 44.9211 70.4306 45.6479 72.1017L45.8961 72.722C46.3401 73.8905 46.5105 75.0208 46.4074 76.1131C46.3115 77.2025 45.9394 78.1588 45.291 78.9818C44.6499 79.802 43.7816 80.4203 42.6862 80.8365C41.0138 81.472 39.4628 81.4261 38.0332 80.699C36.6081 79.9618 35.5431 78.6657 34.8383 76.8107L34.7884 76.6792ZM37.5377 75.8978C38.0012 77.1174 38.6166 77.9784 39.3841 78.4807C40.1489 78.9758 40.9804 79.0526 41.8787 78.7113C42.777 78.37 43.3412 77.7545 43.5714 76.8647C43.809 75.9721 43.6711 74.8503 43.1577 73.4992C42.7026 72.3015 42.0826 71.4506 41.2977 70.9465C40.5201 70.4397 39.6895 70.3541 38.8058 70.6899C37.9367 71.0201 37.3784 71.6292 37.1308 72.5172C36.8804 73.398 37.0161 74.5248 37.5377 75.8978Z" fill="#FFF4C7"/>
<path d="M57.9943 70.3859L56.7659 61.0071L59.4542 59.8133L60.5837 73.1853L58.3238 74.1888L49.1295 64.398L51.8285 63.1995L57.9943 70.3859Z" fill="#FFF4C7"/>
<path d="M76.0263 66.0407C74.4182 66.8599 72.8559 67.0201 71.3393 66.5214C69.8261 66.0121 68.6404 64.9152 67.7822 63.2306L67.6226 62.9173C67.0481 61.7896 66.7515 60.6737 66.7327 59.5698C66.7174 58.4553 66.9771 57.4506 67.512 56.5556C68.0468 55.6607 68.7981 54.9667 69.7657 54.4738C71.3041 53.6901 72.741 53.5762 74.0764 54.1322C75.4187 54.6847 76.5474 55.8589 77.4623 57.6549L77.9836 58.6782L70.6011 62.439C71.1529 63.3328 71.8386 63.9129 72.6581 64.1793C73.4847 64.4421 74.3122 64.3625 75.1405 63.9405C76.3031 63.3483 77.0105 62.3961 77.2627 61.084L79.2955 61.6924C79.187 62.5982 78.8491 63.4323 78.2818 64.1947C77.7179 64.9466 76.9661 65.562 76.0263 66.0407ZM70.7925 56.5153C70.0964 56.8699 69.6566 57.4008 69.4733 58.108C69.2968 58.8116 69.3711 59.6286 69.696 60.559L74.5307 58.0962L74.4349 57.9083C73.9466 57.0873 73.3941 56.5622 72.7774 56.3327C72.1572 56.0963 71.4956 56.1571 70.7925 56.5153Z" fill="#FFF4C7"/>
<path d="M82.868 47.7385L83.6171 48.8335C83.8493 47.4849 84.6296 46.4141 85.9578 45.6213C87.4136 44.7525 88.7421 44.7147 89.9434 45.5079C90.0704 43.9219 90.8516 42.7004 92.2872 41.8435C93.488 41.1268 94.5785 40.9264 95.5585 41.2421C96.5452 41.5539 97.4317 42.3532 98.2179 43.6399L102.488 50.7944L100.043 52.2539L95.8147 45.1698C95.4023 44.4788 94.9491 44.0624 94.455 43.9206C93.9609 43.7788 93.365 43.9161 92.6674 44.3325C92.1106 44.6648 91.7445 45.088 91.5691 45.6021C91.3964 46.1055 91.3838 46.6407 91.5312 47.2078L95.9978 54.6683L93.5525 56.1278L89.2763 48.9632C88.4779 47.7019 87.4415 47.4516 86.1669 48.2124C85.1875 48.797 84.7314 49.6105 84.7986 50.6531L89.5074 58.5422L87.0621 60.0017L80.5636 49.1139L82.868 47.7385Z" fill="#FFF4C7"/>
<path d="M114.045 43.2632C112.561 44.2898 111.034 44.6572 109.464 44.3654C107.897 44.0627 106.575 43.1339 105.5 41.579L105.3 41.2898C104.58 40.2489 104.137 39.1826 103.971 38.0911C103.807 36.9886 103.93 35.9582 104.341 34.9999C104.751 34.0415 105.403 33.2535 106.296 32.6358C107.716 31.6537 109.125 31.349 110.523 31.7217C111.927 32.09 113.202 33.103 114.349 34.7608L115.002 35.7054L108.188 40.4181C108.854 41.2302 109.611 41.7136 110.459 41.8682C111.313 42.0183 112.122 41.8289 112.887 41.3001C113.96 40.558 114.534 39.5199 114.609 38.1858L116.705 38.5174C116.718 39.4295 116.495 40.3013 116.034 41.1326C115.576 41.9531 114.913 42.6633 114.045 43.2632ZM107.587 34.5219C106.944 34.9663 106.579 35.5511 106.492 36.2764C106.411 36.9973 106.594 37.7971 107.04 38.6758L111.502 35.5896L111.382 35.4161C110.789 34.6677 110.171 34.221 109.529 34.0759C108.883 33.9244 108.236 34.0731 107.587 34.5219Z" fill="#FFF4C7"/>
<path d="M118.41 24.127L119.375 25.2326C119.419 23.7628 120.042 22.5601 121.244 21.6244C123.328 20.0025 125.317 20.3701 127.211 22.7273L132.357 29.3395L130.11 31.0886L125.065 24.6058C124.57 23.9708 124.067 23.6102 123.554 23.524C123.043 23.4269 122.476 23.6206 121.854 24.1053C120.947 24.8107 120.591 25.7461 120.786 26.9115L126.328 34.0324L124.081 35.7814L116.293 25.7752L118.41 24.127Z" fill="#FFF4C7"/>
<path d="M131.463 9.52562L133.472 11.8628L135.169 10.4037L136.544 12.0033L134.847 13.4624L139.461 18.8298C139.777 19.1971 140.077 19.4026 140.362 19.4463C140.648 19.4789 140.977 19.3348 141.35 19.014C141.599 18.8001 141.825 18.554 142.029 18.2758L143.465 19.9464C143.091 20.5054 142.676 20.981 142.219 21.3731C140.561 22.7991 138.944 22.5968 137.371 20.7662L132.688 15.3187L131.106 16.6785L129.731 15.0789L131.313 13.7191L129.304 11.382L131.463 9.52562Z" fill="#FFF4C7"/>
</svg>
