<svg width="157" height="41" viewBox="0 0 157 41" fill="none" xmlns="http://www.w3.org/2000/svg">
<path d="M4.77661 15.0524C5.16522 13.8726 5.74846 12.8885 6.52634 12.1001C7.30666 11.3042 8.20288 10.7933 9.215 10.5674C10.2296 10.334 11.2859 10.3982 12.3842 10.7599C14.0092 11.2951 15.154 12.2521 15.8186 13.6307C16.4906 15.0119 16.5826 16.5803 16.0948 18.3362L15.8969 18.9743C15.5059 20.1615 14.9264 21.1469 14.1583 21.9303C13.3978 22.7162 12.5065 23.2246 11.4845 23.4555C10.4699 23.6889 9.40612 23.6223 8.29306 23.2557C6.5938 22.696 5.41791 21.6835 4.7654 20.2184C4.12276 18.7482 4.11183 17.0708 4.73262 15.186L4.77661 15.0524ZM7.40435 16.177C6.99619 17.4162 6.93202 18.4726 7.21184 19.3462C7.4941 20.2123 8.09158 20.7957 9.00429 21.0963C9.91699 21.397 10.7429 21.2742 11.4822 20.728C12.2288 20.1843 12.8282 19.2261 13.2803 17.8533C13.6812 16.6364 13.7355 15.585 13.4433 14.6991C13.1585 13.8156 12.5671 13.2261 11.6693 12.9303C10.7863 12.6395 9.96893 12.761 9.21732 13.2948C8.46816 13.8213 7.86383 14.782 7.40435 16.177Z" fill="#FFF4C7"/>
<path d="M27.1509 26.2386C27.8425 26.4035 28.4642 26.3389 29.0162 26.0449C29.5683 25.7509 29.9301 25.3111 30.1019 24.7256L32.7123 25.3481C32.4989 26.1084 32.0882 26.7694 31.4804 27.3313C30.8744 27.8855 30.1414 28.2649 29.2814 28.4694C28.4214 28.674 27.5469 28.6702 26.6578 28.4582C24.9327 28.0468 23.698 27.1621 22.9537 25.8039C22.2093 24.4458 22.0718 22.7826 22.5412 20.8144L22.6092 20.5294C23.0568 18.6523 23.9162 17.271 25.1876 16.3855C26.4607 15.4924 27.9636 15.2525 29.6963 15.6656C31.1629 16.0154 32.2537 16.7293 32.9684 17.8073C33.6926 18.8795 33.9117 20.1164 33.6256 21.518L31.0152 20.8955C31.1534 20.1815 31.0488 19.5421 30.7016 18.9774C30.3619 18.4146 29.8425 18.0498 29.1434 17.883C28.2467 17.6692 27.4772 17.8311 26.835 18.3686C26.1946 18.8986 25.7129 19.8238 25.39 21.1443L25.284 21.5889C24.9651 22.9264 24.9661 23.9828 25.2872 24.7581C25.6178 25.5276 26.239 26.0211 27.1509 26.2386Z" fill="#FFF4C7"/>
<path d="M44.8423 29.6867C45.545 29.7945 46.1595 29.6794 46.6856 29.3412C47.2117 29.003 47.5365 28.5352 47.6598 27.9376L50.3123 28.3446C50.1617 29.1198 49.8065 29.8122 49.2466 30.4219C48.6879 31.0238 47.9884 31.4618 47.148 31.7359C46.3077 32.0101 45.4357 32.0778 44.5322 31.9392C42.7793 31.6702 41.4764 30.8893 40.6236 29.5965C39.7708 28.3038 39.4978 26.6574 39.8047 24.6574L39.8492 24.3678C40.1419 22.4604 40.8856 21.0135 42.0803 20.0271C43.2762 19.0329 44.7544 18.6709 46.5151 18.9411C48.0054 19.1698 49.1509 19.7922 49.9513 20.8082C50.7607 21.8176 51.0801 23.0325 50.9096 24.4527L48.257 24.0456C48.3364 23.3228 48.1799 22.6941 47.7877 22.1597C47.4032 21.6264 46.8557 21.3053 46.1453 21.1963C45.2341 21.0564 44.4804 21.2806 43.8843 21.8689C43.2893 22.4494 42.8849 23.4109 42.671 24.7534L42.6017 25.2051C42.3931 26.5642 42.4805 27.617 42.8639 28.3635C43.2562 29.1034 43.9157 29.5445 44.8423 29.6867Z" fill="#FFF4C7"/>
<path d="M64.9738 33.8764C64.8661 33.626 64.7848 33.2247 64.7298 32.6726C63.7593 33.5518 62.6194 33.9452 61.3101 33.8528C60.0398 33.7631 59.0289 33.3276 58.2774 32.5462C57.5258 31.7648 57.1877 30.8403 57.2631 29.7726C57.3582 28.4244 57.9299 27.427 58.978 26.7804C60.0344 26.1266 61.4939 25.8654 63.3565 25.9969L65.0983 26.1198L65.1568 25.2898C65.203 24.6352 65.0567 24.1002 64.718 23.6847C64.3797 23.2614 63.8365 23.0233 63.0884 22.9705C62.4416 22.9249 61.9001 23.0511 61.464 23.3493C61.0284 23.6397 60.793 24.0342 60.7578 24.533L57.9172 24.3325C57.9661 23.6389 58.2417 23.0083 58.7438 22.4407C59.2465 21.8653 59.9035 21.4339 60.7148 21.1465C61.5339 20.8597 62.4305 20.7507 63.4047 20.8195C64.8854 20.924 66.0396 21.3814 66.8675 22.1916C67.6958 22.9941 68.0741 24.0703 68.0024 25.4202L67.5998 31.1247C67.5195 32.2625 67.6152 33.1817 67.8869 33.8822L67.8728 34.081L64.9738 33.8764ZM61.997 31.6104C62.5581 31.65 63.0938 31.5508 63.604 31.3127C64.122 31.0751 64.5219 30.7352 64.8037 30.293L64.972 27.9083L63.4407 27.8003C62.3886 27.726 61.5847 27.8533 61.0289 28.1822C60.4731 28.5111 60.1716 29.0106 60.1243 29.6808C60.0858 30.2264 60.2342 30.6754 60.5696 31.028C60.9134 31.3734 61.3891 31.5675 61.997 31.6104Z" fill="#FFF4C7"/>
<path d="M82.6556 30.7667C82.6498 30.2589 82.4345 29.8746 82.0096 29.6138C81.5926 29.3529 80.8986 29.1264 79.9276 28.9343C78.9566 28.7422 78.1451 28.4936 77.4932 28.1885C76.0636 27.5172 75.3414 26.5292 75.3265 25.2246C75.3141 24.1309 75.7646 23.2117 76.6781 22.4669C77.5916 21.7221 78.7592 21.3416 80.181 21.3255C81.6965 21.3082 82.9233 21.6693 83.8615 22.4087C84.8074 23.148 85.2872 24.1153 85.3008 25.3105L82.4533 25.3429C82.4471 24.796 82.2389 24.3452 81.8285 23.9905C81.4182 23.628 80.877 23.4505 80.2052 23.4581C79.5802 23.4652 79.0702 23.6156 78.6751 23.9091C78.2878 24.2026 78.0969 24.5915 78.1024 25.0759C78.1073 25.5134 78.2948 25.8511 78.6647 26.0891C79.0346 26.3271 79.7795 26.5647 80.8995 26.802C82.0194 27.0315 82.8976 27.3145 83.5343 27.651C84.1787 27.9797 84.656 28.3805 84.966 28.8536C85.2839 29.3266 85.4467 29.9029 85.4545 30.5825C85.4674 31.7231 85.0053 32.6542 84.0682 33.3758C83.1309 34.0896 81.8967 34.4552 80.3655 34.4726C79.3265 34.4845 78.3987 34.3075 77.582 33.9417C76.7653 33.576 76.1266 33.0676 75.6661 32.4165C75.2055 31.7655 74.971 31.0611 74.9623 30.3033L77.7278 30.2719C77.7745 30.9433 78.0343 31.4599 78.5072 31.8217C78.98 32.1757 79.6031 32.3484 80.3765 32.3396C81.1264 32.331 81.6951 32.1839 82.0825 31.8983C82.4698 31.6048 82.6608 31.2276 82.6556 30.7667Z" fill="#FFF4C7"/>
<path d="M96.7594 33.4683L93.9207 33.6946L92.9132 21.055L95.7518 20.8287L96.7594 33.4683ZM92.4763 17.7864C92.4415 17.3503 92.5489 16.9773 92.7985 16.6674C93.0559 16.3569 93.4416 16.1812 93.9556 16.1402C94.4696 16.0993 94.8783 16.2117 95.1816 16.4775C95.4849 16.7433 95.654 17.0942 95.6887 17.5303C95.7229 17.9587 95.6112 18.3281 95.3539 18.6386C95.0958 18.9413 94.7098 19.1131 94.1958 19.1541C93.6819 19.1951 93.2735 19.0866 92.9708 18.8285C92.6753 18.5621 92.5104 18.2147 92.4763 17.7864Z" fill="#FFF4C7"/>
<path d="M104.365 26.275C104.179 25.0468 104.256 23.9054 104.594 22.8508C104.931 21.7884 105.501 20.9281 106.302 20.2697C107.102 19.6036 108.074 19.1842 109.217 19.0114C110.909 18.7557 112.362 19.0931 113.577 20.0235C114.8 20.9527 115.59 22.3109 115.947 24.0979L116.059 24.7566C116.245 25.9926 116.173 27.1334 115.841 28.1791C115.517 29.2237 114.951 30.0796 114.143 30.7468C113.343 31.4129 112.364 31.8335 111.205 32.0087C109.436 32.276 107.93 31.9032 106.686 30.8901C105.449 29.8682 104.683 28.3762 104.386 26.4141L104.365 26.275ZM107.218 26.0928C107.412 27.3828 107.832 28.3545 108.476 29.0078C109.119 29.6534 109.915 29.9044 110.865 29.7608C111.815 29.6172 112.497 29.1349 112.91 28.3139C113.331 27.4918 113.434 26.3662 113.218 24.9371C113.026 23.6702 112.6 22.7074 111.94 22.0487C111.287 21.3889 110.493 21.1296 109.558 21.2709C108.639 21.4098 107.965 21.8871 107.535 22.7026C107.104 23.5105 106.998 24.6405 107.218 26.0928Z" fill="#FFF4C7"/>
<path d="M124.393 16.4171L124.815 17.822C125.462 16.5012 126.525 15.6624 128.006 15.3056C130.574 14.6873 132.234 15.8423 132.988 18.7707L134.95 26.9166L132.181 27.5835L130.257 19.597C130.069 18.8147 129.759 18.2786 129.328 17.9888C128.902 17.6895 128.306 17.6323 127.538 17.8171C126.422 18.086 125.712 18.7914 125.408 19.9333L127.521 28.7058L124.753 29.3727L121.784 17.0455L124.393 16.4171Z" fill="#FFF4C7"/>
<path d="M149.034 19.0074C148.874 18.5255 148.552 18.2249 148.068 18.1057C147.591 17.984 146.861 17.9793 145.877 18.0917C144.894 18.2041 144.045 18.2141 143.332 18.1217C141.765 17.9171 140.777 17.1957 140.366 15.9574C140.021 14.9194 140.171 13.9066 140.815 12.9193C141.458 11.9319 142.455 11.2142 143.804 10.7664C145.243 10.2889 146.521 10.2597 147.64 10.6787C148.766 11.0952 149.517 11.8707 149.894 13.0051L147.191 13.9021C147.019 13.3831 146.683 13.017 146.184 12.8039C145.683 12.5834 145.114 12.579 144.476 12.7906C143.883 12.9875 143.443 13.2858 143.156 13.6857C142.876 14.0831 142.812 14.5116 142.965 14.9713C143.103 15.3866 143.384 15.6513 143.809 15.7655C144.234 15.8797 145.016 15.8795 146.155 15.7648C147.291 15.6428 148.214 15.6452 148.923 15.7721C149.637 15.8891 150.213 16.1258 150.653 16.4822C151.099 16.836 151.43 17.3355 151.644 17.9806C152.003 19.0631 151.846 20.0907 151.173 21.0632C150.497 22.0283 149.433 22.752 147.979 23.2344C146.993 23.5617 146.055 23.6753 145.166 23.5754C144.277 23.4754 143.514 23.1853 142.877 22.7052C142.24 22.2251 141.803 21.6255 141.564 20.9062L144.189 20.0351C144.437 20.6604 144.842 21.0735 145.403 21.2744C145.961 21.4678 146.607 21.4427 147.341 21.1991C148.053 20.9628 148.55 20.6497 148.832 20.2597C149.112 19.8623 149.179 19.4449 149.034 19.0074Z" fill="#FFF4C7"/>
</svg>
